<svg width="17" height="16" viewBox="0 0 17 16" fill="none" xmlns="http://www.w3.org/2000/svg">
<g clip-path="url(#clip0_8_2618)">
<g clip-path="url(#clip1_8_2618)">
<path fill-rule="evenodd" clip-rule="evenodd" d="M5.19963 3.46288C5.24805 2.564 5.6265 1.71175 6.26627 1.07196C6.95264 0.385606 7.88356 0 8.85423 0C9.82489 0 10.7558 0.385593 11.4422 1.07196C12.0819 1.71174 12.4604 2.564 12.5088 3.46288H16.0827C16.5103 3.46288 16.8569 3.8095 16.8569 4.23707C16.8569 4.66465 16.5103 5.01127 16.0827 5.01127H14.8626C14.9871 7.79883 14.9492 10.5943 14.5275 13.4055C14.3037 14.8968 13.0227 16 11.5147 16H6.19414C4.68617 16 3.40507 14.8969 3.18136 13.4055C2.75968 10.5943 2.72172 7.79884 2.84618 5.01127H1.63113C1.20355 5.01127 0.856934 4.66465 0.856934 4.23707C0.856934 3.8095 1.20355 3.46288 1.63113 3.46288H5.19963ZM7.36116 2.16683C7.75716 1.77084 8.29423 1.54839 8.85423 1.54839C9.41423 1.54839 9.95131 1.77085 10.3473 2.16683C10.6966 2.51612 10.9108 2.97515 10.9565 3.46288H6.75192C6.79761 2.97515 7.01189 2.51611 7.36116 2.16683ZM4.39615 5.01127H13.3127C13.4382 7.76476 13.4014 10.4746 12.9962 13.1758C12.8861 13.9092 12.2562 14.4516 11.5147 14.4516H6.19414C5.45255 14.4516 4.82261 13.9091 4.71262 13.1758C4.30744 10.4746 4.27055 7.76474 4.39615 5.01127Z" fill="currentColor"/>
</g>
</g>
<defs>
<clipPath id="clip0_8_2618">
<rect width="16" height="16" fill="white" transform="translate(0.856934)"/>
</clipPath>
<clipPath id="clip1_8_2618">
<rect width="16" height="16" fill="white" transform="translate(0.856934)"/>
</clipPath>
</defs>
</svg>
