<svg width="17" height="16" viewBox="0 0 17 16" fill="none" xmlns="http://www.w3.org/2000/svg">
<g clip-path="url(#clip0_8_2604)">
<path d="M12.6587 4.66014C12.6338 4.11642 12.5998 3.57312 12.5566 3.03045C12.5385 2.80072 12.4348 2.5848 12.2644 2.4219C12.094 2.25899 11.8682 2.1599 11.6278 2.14261C9.06012 1.95246 6.48085 1.95246 3.91312 2.14261C3.67281 2.1599 3.44694 2.25899 3.27653 2.4219C3.10613 2.5848 3.00247 2.80072 2.98438 3.03045C2.7858 5.4759 2.7858 7.93239 2.98438 10.3778C3.00247 10.6076 3.10613 10.8235 3.27653 10.9864C3.44694 11.1493 3.67281 11.2484 3.91312 11.2657C4.51164 11.3091 5.09984 11.3426 5.68289 11.3653" stroke="currentColor" stroke-width="1.5" stroke-linecap="round" stroke-linejoin="round"/>
<path d="M5.80166 12.9694C5.81975 13.1992 5.9234 13.4151 6.09381 13.578C6.26422 13.7409 6.49009 13.84 6.7304 13.8573C9.29846 14.0477 11.8781 14.0477 14.4462 13.8573C14.6865 13.84 14.9123 13.7409 15.0827 13.578C15.2532 13.4151 15.3568 13.1992 15.3749 12.9694C15.5734 10.5243 15.5734 8.06814 15.3749 5.62301C15.3568 5.39328 15.2532 5.17736 15.0827 5.01446C14.9123 4.85155 14.6865 4.75246 14.4462 4.73517C11.8781 4.54498 9.29847 4.54498 6.7304 4.73517C6.49009 4.75246 6.26422 4.85155 6.09381 5.01446C5.9234 5.17736 5.81975 5.39328 5.80166 5.62301C5.60314 8.06814 5.60314 10.5243 5.80166 12.9694Z" stroke="currentColor" stroke-width="1.5" stroke-linecap="round" stroke-linejoin="round"/>
</g>
<defs>
<clipPath id="clip0_8_2604">
<rect width="16" height="16" fill="white" transform="translate(0.856934)"/>
</clipPath>
</defs>
</svg>
