<svg width="17" height="16" viewBox="0 0 17 16" fill="none" xmlns="http://www.w3.org/2000/svg">
<g clip-path="url(#clip0_77_697)">
<path d="M1.811 5.9481C1.16638 6.79333 0.796875 7.56737 0.796875 7.9878C0.796875 9.24916 4.12276 13.6934 8.22545 13.6934C8.64222 13.6934 9.05099 13.6475 9.44906 13.5637M3.6611 4.06497C4.9205 3.06407 6.50465 2.28223 8.22545 2.28223C12.3282 2.28223 15.654 6.72645 15.654 7.9878C15.654 8.81983 14.2068 11.0368 12.0442 12.4496" stroke="currentColor" stroke-width="1.5" stroke-linecap="round" stroke-linejoin="round"/>
<path d="M6.15088 6.86511C6.48223 6.11337 7.19518 5.70557 8.22578 5.70557C9.68864 5.70557 10.5115 6.52717 10.5115 7.9878C10.5115 9.02193 10.099 9.73575 9.33896 10.0644" stroke="currentColor" stroke-width="1.5" stroke-linecap="round" stroke-linejoin="round"/>
<path d="M0.796875 0.570557C5.8998 7.09728 8.97739 10.1347 15.6542 15.4051" stroke="currentColor" stroke-width="1.5" stroke-linecap="round" stroke-linejoin="round"/>
</g>
<defs>
<clipPath id="clip0_77_697">
<rect width="16" height="15.9756" fill="white" transform="translate(0.225586)"/>
</clipPath>
</defs>
</svg>
