<svg width="24" height="24" viewBox="0 0 24 24" fill="none" xmlns="http://www.w3.org/2000/svg">
<path d="M17.5956 1.84216H7.42812C5.9763 1.84216 4.692 2.83589 4.46386 4.29325C3.71402 9.08031 3.9629 14.8789 4.57554 20.1102C4.7255 21.3763 6.20125 21.9371 7.15211 21.1039L9.15435 19.3531L10.6907 21.0553C10.9157 21.3043 11.1894 21.5028 11.4942 21.6383C11.799 21.7738 12.1282 21.8432 12.4609 21.8422C12.7936 21.8411 13.1224 21.7695 13.4263 21.6321C13.7303 21.4947 14.0027 21.2943 14.2261 21.0439L15.7338 19.3548L17.8062 21.1477C18.7539 21.9696 20.2137 21.42 20.37 20.1637C21.0162 14.9908 21.3257 8.91334 20.5056 4.18625C20.2615 2.77753 19.0044 1.84216 17.5956 1.84216Z" stroke="currentColor" stroke-width="1.5" stroke-linecap="round" stroke-linejoin="round"/>
<path d="M14.9009 8.18548C14.9009 8.18548 14.0326 7.25497 12.6238 7.37169C11.2149 7.48841 10.5358 8.31841 10.5358 9.15164C10.5358 11.58 14.9009 9.89734 14.9009 12.3873C14.9009 13.6712 12.0055 14.5774 10.2808 13.0682M12.7961 5.73926V7.36034M12.7961 13.8414V15.4658" stroke="currentColor" stroke-width="1.5" stroke-linecap="round" stroke-linejoin="round"/>
</svg>
