<svg width="24" height="24" viewBox="0 0 24 24" fill="none" xmlns="http://www.w3.org/2000/svg">
<path fill-rule="evenodd" clip-rule="evenodd" d="M21.0722 3.83601C22.112 4.91924 22.0767 6.6403 20.9936 7.68011C19.9802 8.65291 18.7424 10.1678 16.7065 12.6958C14.6565 15.2414 12.8009 17.7601 12.0081 19.1833C11.5561 19.9949 10.7209 20.5194 9.7936 20.5744C8.86625 20.6292 7.97508 20.2068 7.43046 19.4543C7.17385 19.0996 6.56611 18.4061 5.82301 17.6358C5.08926 16.8753 4.38914 16.2112 4.00393 15.8981C2.83879 14.9509 2.66205 13.2386 3.60917 12.0735C4.55629 10.9084 6.26862 10.7316 7.43375 11.6787C7.96018 12.1067 8.6454 12.7548 9.30329 13.418C10.2642 12.0835 11.3794 10.6415 12.4716 9.28523C14.5312 6.72788 15.9495 4.98469 17.228 3.7574C18.3113 2.7176 20.0324 2.75279 21.0722 3.83601Z" stroke="currentColor" stroke-width="1.5" stroke-linecap="round" stroke-linejoin="round"/>
</svg>
