<svg width="24" height="24" viewBox="0 0 24 24" fill="none" xmlns="http://www.w3.org/2000/svg">
<path d="M2.29267 17.2529C2.54038 19.5683 4.40258 21.4305 6.7168 21.6885C8.43572 21.88 10.2006 22.0446 12 22.0446C13.7994 22.0446 15.5643 21.88 17.2832 21.6885C19.5975 21.4305 21.4597 19.5683 21.7073 17.2529C21.8902 15.5437 22.0447 13.789 22.0447 12C22.0447 10.211 21.8902 8.45618 21.7073 6.74697C21.4597 4.43164 19.5975 2.56943 17.2832 2.31148C15.5643 2.11988 13.7994 1.95532 12 1.95532C10.2006 1.95532 8.43572 2.11988 6.7168 2.31148C4.40258 2.56943 2.54038 4.43164 2.29267 6.74697C2.1098 8.45618 1.95538 10.211 1.95538 12C1.95538 13.789 2.1098 15.5437 2.29267 17.2529Z" stroke="#24292F" stroke-width="1.5" stroke-linecap="round" stroke-linejoin="round"/>
<path d="M8.6853 2.12097V21.88" stroke="#24292F" stroke-width="1.5" stroke-linecap="round" stroke-linejoin="round"/>
</svg>
