<svg width="24" height="24" viewBox="0 0 24 24" fill="none" xmlns="http://www.w3.org/2000/svg">
<path d="M14.2319 7.39548C14.2054 6.56057 14.1717 5.73552 14.1312 4.92155C14.0577 3.44444 12.8132 2.23133 11.1864 2.11554C8.80189 2.11554 7.47155 1.94484 5.07347 2.11554C3.44665 2.23134 2.20212 3.44444 2.12864 4.92155C2.01515 7.20289 1.95538 9.57111 1.95538 12C1.95538 14.4289 2.01515 16.7971 2.12864 19.0785C2.20212 20.5556 3.44665 21.7687 5.07347 21.8844C7.46104 22.0544 8.80573 22.0539 11.1864 21.8844C12.8132 21.7687 14.0577 20.5556 14.1312 19.0785C14.1717 18.2645 14.2054 17.4395 14.2319 16.6046" stroke="currentColor" stroke-width="1.5" stroke-linecap="round" stroke-linejoin="round"/>
<path d="M10 12H23" stroke="currentColor" stroke-width="1.5" stroke-linecap="round" stroke-linejoin="round"/>
<path d="M18.4744 7.42969C20.3025 8.34375 22.1306 10.1719 23.0447 11.9999C22.1306 13.8281 20.3025 15.6562 18.4744 16.5703" stroke="currentColor" stroke-width="1.5" stroke-linecap="round" stroke-linejoin="round"/>
</svg>
