<svg width="24" height="24" viewBox="0 0 24 24" fill="none" xmlns="http://www.w3.org/2000/svg">
<path d="M13.6609 21.7833C13.4922 22.0925 13.2499 22.3492 12.9584 22.5276C12.667 22.706 12.3365 22.7999 12.0001 22.7999C11.6638 22.7999 11.3333 22.706 11.0419 22.5276C10.7504 22.3492 10.5081 22.0925 10.3393 21.7833M21.6001 17.7026H2.40015C3.16397 17.7026 3.89651 17.3802 4.43661 16.8062C4.97672 16.2322 5.28015 15.4538 5.28015 14.6421V9.54117C5.28015 7.64719 5.98814 5.83078 7.24839 4.49153C8.50863 3.15228 10.2179 2.3999 12.0001 2.3999C13.7824 2.3999 15.4917 3.15228 16.7519 4.49153C18.0121 5.83078 18.7201 7.64719 18.7201 9.54117V14.6421C18.7201 15.4538 19.0236 16.2322 19.5637 16.8062C20.1038 17.3802 20.8363 17.7026 21.6001 17.7026Z" stroke="#24292F" stroke-width="1.5" stroke-linecap="round" stroke-linejoin="round"/>
</svg>
